#!OML:ASF I:\golf\golf\golf 2\Subject 1\2002-09-07\Subject1.ASF
:FULLY-SPECIFIED
:DEGREES
344
root 0.609718 16.2948 -3.42511 54.2109 18.0413 3.65906
lowerback 31.4951 6.74617 6.03177
upperback 15.7864 10.2401 9.4442
thorax 0.200261 4.85077 4.00175
lowerneck -15.2159 -10.4953 -3.16684
upperneck 3.85675 -13.272 -3.87946
head 3.90578 -6.8762 -1.8353
rclavicle 2.8625e-014 -1.19271e-014
rhumerus 51.2043 -12.705 -59.2542
rradius 22.4016
rwrist -6.58441
rhand -35.9869 1.14838
rfingers 7.12502
rthumb -9.0972 -28.6354
lclavicle 2.8625e-014 -1.19271e-014
lhumerus -16.4088 -57.8637 83.9352
lradius 84.5356
lwrist -17.7349
lhand -49.9715 17.4235
lfingers 7.12502
lthumb -22.5617 46.1252
rfemur -92.1748 -19.9545 34.2218
rtibia 62.41
rfoot -16.8979 -10.5829
rtoes -5.84143
lfemur -93.2568 -0.389618 -26.2866
ltibia 49.9975
lfoot -5.80064 -19.5086
ltoes -4.38221
345
root 0.599255 16.3098 -3.43465 53.9927 18.0636 3.56988
lowerback 31.3091 6.63986 6.03534
upperback 15.6137 10.1166 9.37334
thorax 0.0969723 4.79698 3.95831
lowerneck -15.1415 -10.4408 -3.45351
upperneck 4.39273 -13.1319 -3.80224
head 3.65794 -6.82105 -1.60234
rclavicle 1.59028e-014 -1.51076e-014
rhumerus 50.0642 -11.4378 -58.3396
rradius 22.5271
rwrist -7.51754
rhand -33.7671 0.617857
rfingers 7.12502
rthumb -6.95479 -29.2479
lclavicle 1.59028e-014 -1.51076e-014
lhumerus -16.7249 -57.8054 84.3376
lradius 84.2407
lwrist -17.4406
lhand -49.7034 17.5577
lfingers 7.12502
lthumb -22.3044 46.2904
rfemur -91.7788 -19.8488 34.1636
rtibia 62.0151
rfoot -16.6052 -10.6525
rtoes -5.95608
lfemur -92.9267 -0.391971 -25.915
ltibia 49.6897
lfoot -5.50043 -19.2305
ltoes -4.04037
346
root 0.581598 16.3452 -3.43749 53.4668 18.0358 3.402
lowerback 31.4986 6.59762 5.91213
upperback 15.5167 10.0637 9.33413
thorax -0.111703 4.76423 3.96864
lowerneck -15.3147 -10.3636 -3.55103
upperneck 4.68988 -12.9838 -3.76979
head 3.78653 -6.74938 -1.5898
rclavicle 5.08889e-014 -2.46493e-014
rhumerus 49.0156 -10.2622 -57.6993
rradius 22.7768
rwrist -8.24955
rhand -31.3288 0.19486
rfingers 7.12502
rthumb -4.60062 -29.7352
lclavicle 5.08889e-014 -2.46493e-014
lhumerus -16.7831 -57.7015 84.48
lradius 83.8637
lwrist -17.2375
lhand -49.4907 17.1812
lfingers 7.12502
lthumb -22.1002 45.9382
rfemur -90.9277 -19.6799 33.9709
rtibia 61.5898
rfoot -16.4185 -10.7791
rtoes -6.21721
lfemur -92.2459 -0.224729 -25.5513
ltibia 49.3783
lfoot -5.27894 -18.9997
ltoes -3.62502
347
root 0.555742 16.4269 -3.42301 52.0503 17.8653 3.01211
lowerback 33.0463 6.66332 5.78468
upperback 15.3849 10.2216 9.42692
thorax -0.749586 4.79671 3.75176
lowerneck -15.5213 -10.2971 -3.50375
upperneck 4.93892 -12.876 -3.80128
head 3.89174 -6.69922 -1.61883
rclavicle 5.08889e-014 4.69132e-014
rhumerus 47.6763 -8.83702 -56.5962
rradius 23.3966
rwrist -9.42799
rhand -29.0865 -0.219555
rfingers 7.12502
rthumb -2.4352 -30.1854
lclavicle 5.08889e-014 4.69132e-014
lhumerus -16.517 -57.8248 84.3851
lradius 83.5043
lwrist -16.7767
lhand -49.0232 17.069
lfingers 7.12502
lthumb -21.6513 45.8784
rfemur -88.8827 -19.4855 33.5369
rtibia 61.0446
rfoot -16.4678 -10.776
rtoes -5.32024
lfemur -90.5214 0.354319 -25.2141
ltibia 48.9931
lfoot -5.3726 -18.8165
ltoes -3.92383
348
root 0.538992 16.459 -3.42809 51.579 17.8919 2.80659
lowerback 32.9699 6.64231 5.78013
upperback 15.3235 10.198 9.39847
thorax -0.782647 4.78855 3.73259
lowerneck -15.6483 -10.2307 -3.38665
upperneck 5.05516 -12.7874 -3.91297
head 3.93386 -6.66066 -1.6729
rclavicle 7.63333e-014 1.90833e-014
rhumerus 46.3283 -7.40806 -55.5082
rradius 24.0785
rwrist -10.3925
rhand -26.9232 -0.452214
rfingers 7.12502
rthumb -0.345957 -30.4317
lclavicle 7.63333e-014 1.90833e-014
lhumerus -16.4425 -57.8027 84.4317
lradius 83.7439
lwrist -15.889
lhand -48.1685 16.9672
lfingers 7.12502
lthumb -20.8303 45.869
rfemur -88.1387 -19.35 33.502
rtibia 60.5741
rfoot -16.2299 -10.6051
rtoes -3.60307
lfemur -89.8922 0.475818 -24.7878
ltibia 48.5873
lfoot -5.24885 -18.5715
ltoes -4.45451
349
root 0.520236 16.5012 -3.43185 50.9483 17.8569 2.74477
lowerback 33.1531 6.626 5.64276
upperback 15.2609 10.1689 9.39681
thorax -0.942016 4.7668 3.78496
lowerneck -15.7901 -10.1515 -3.22342
upperneck 5.12833 -12.6822 -4.15753
head 3.95392 -6.62081 -1.77063
rclavicle 9.85972e-014 1.90833e-014
rhumerus 45.2343 -6.18235 -54.6157
rradius 24.4611
rwrist -11.0941
rhand -24.3903 -0.069552
rfingers 7.12502
rthumb 2.10042 -30.039
lclavicle 9.85972e-014 1.90833e-014
lhumerus -16.0273 -57.9571 84.4293
lradius 82.9776
lwrist -14.9107
lhand -47.8395 16.366
lfingers 7.12502
lthumb -20.5141 45.3022
rfemur -87.0961 -19.2792 33.1799
rtibia 60.0517
rfoot -16.0961 -10.5478
rtoes -2.26602
lfemur -88.9586 0.547728 -24.5178
ltibia 48.1015
lfoot -5.19473 -18.3647
ltoes -5.14935
350
root 0.497259 16.5596 -3.42887 49.9251 17.716 2.57661
lowerback 33.8984 6.58575 5.44984
upperback 15.1829 10.1327 9.34983
thorax -1.32097 4.72896 3.77352
lowerneck -16.0047 -10.0404 -3.33177
upperneck 5.27373 -12.4939 -4.09779
head 4.04497 -6.52852 -1.74086
rclavicle -5.40694e-014 -2.3059e-014
rhumerus 44.3233 -5.19184 -54.8665
rradius 24.5957
rwrist -10.6699
rhand -21.868 1.1216
rfingers 7.12502
rthumb 4.5362 -28.8098
lclavicle -5.40694e-014 -2.3059e-014
lhumerus -15.9964 -57.8107 84.5618
lradius 82.4432
lwrist -14.25
lhand -47.6493 15.5679
lfingers 7.12502
lthumb -20.3314 44.5237
rfemur -85.5317 -19.1347 32.7313
rtibia 59.4791
rfoot -16.0879 -10.7037
rtoes -2.54234
lfemur -87.5724 0.812465 -24.2311
ltibia 47.5944
lfoot -5.24007 -18.1004
ltoes -5.70539
351
root 0.469498 16.6333 -3.41705 48.5411 17.4468 2.26358
lowerback 34.9389 6.7051 5.15919
upperback 15.1853 10.2701 9.37048
thorax -1.74868 4.76141 3.80914
lowerneck -16.1157 -10.0127 -3.61695
upperneck 5.44708 -12.4039 -3.80843
head 4.15256 -6.47374 -1.62067
rclavicle -7.95139e-014 -1.90833e-014
rhumerus 43.2017 -3.62222 -54.0401
rradius 24.8725
rwrist -11.4482
rhand -20.0583 2.42405
rfingers 7.12502
rthumb 6.28358 -27.4628
lclavicle -7.95139e-014 -1.90833e-014
lhumerus -15.9326 -57.796 84.6622
lradius 82.0317
lwrist -13.6966
lhand -47.3924 15.2178
lfingers 7.12502
lthumb -20.0845 44.1997
rfemur -83.4757 -18.8482 32.1745
rtibia 58.8186
rfoot -16.0497 -10.9972
rtoes -3.98324
lfemur -85.764 1.30168 -23.8846
ltibia 47.062
lfoot -5.21352 -17.8105
ltoes -5.98107
352
root 0.44018 16.7011 -3.40691 47.3797 17.2025 2.02102
lowerback 35.5893 6.86425 4.82992
upperback 15.1749 10.4149 9.40536
thorax -2.05788 4.80378 3.90461
lowerneck -16.1597 -10.0071 -3.75622
upperneck 5.58947 -12.3658 -3.68623
head 4.22028 -6.45075 -1.56952
rclavicle -8.26944e-014 4.37326e-014
rhumerus 41.7887 -1.17629 -51.9995
rradius 25.5133
rwrist -13.7603
rhand -19.0205 3.39204
rfingers 7.12502
rthumb 7.28535 -26.4625
lclavicle -8.26944e-014 4.37326e-014
lhumerus -15.863 -57.8406 84.8786
lradius 81.4648
lwrist -13.1988
lhand -46.9916 15.1276
lfingers 7.12502
lthumb -19.6992 44.1495
rfemur -81.628 -18.518 31.6252
rtibia 58.0648
rfoot -15.8151 -11.2829
rtoes -5.24319
lfemur -84.1607 1.70734 -23.615
ltibia 46.4853
lfoot -5.26112 -17.5458
ltoes -6.21969
353
root 0.420063 16.7342 -3.41145 46.8752 17.2617 1.92396
lowerback 35.3767 6.80553 4.82344
upperback 15.0729 10.3453 9.37351
thorax -2.08778 4.77804 3.90547
lowerneck -16.1411 -9.96163 -3.56662
upperneck 5.46983 -12.331 -3.89857
head 4.15568 -6.44145 -1.65085
rclavicle -1.04958e-013 8.74653e-015
rhumerus 40.3159 1.22374 -50.285
rradius 26.4528
rwrist -15.6068
rhand -18.0055 4.05144
rfingers 7.12502
rthumb 8.26502 -25.7669
lclavicle -1.04958e-013 8.74653e-015
lhumerus -15.7685 -57.9238 85.0889
lradius 80.8236
lwrist -12.7263
lhand -46.5715 15.0007
lfingers 7.12502
lthumb -19.2953 44.0635
rfemur -80.6957 -18.3998 31.4413
rtibia 57.3838
rfoot -15.4974 -11.3956
rtoes -5.56669
lfemur -83.3666 1.71543 -23.3114
ltibia 45.933
lfoot -5.19816 -17.2746
ltoes -6.76468
354
root 0.388604 16.8261 -3.39059 45.0672 16.9442 1.52245
lowerback 36.803 7.04173 4.50913
upperback 15.0873 10.6295 9.47474
thorax -2.6457 4.86728 3.95563
lowerneck -16.1223 -9.91275 -3.18019
upperneck 5.2576 -12.3168 -4.37432
head 4.03403 -6.45358 -1.83618
rclavicle -1.59028e-014 -2.62396e-014
rhumerus 38.9503 3.00077 -49.4209
rradius 27.2876
rwrist -16.2161
rhand -17.247 4.93261
rfingers 7.12502
rthumb 8.99705 -24.8555
lclavicle -1.59028e-014 -2.62396e-014
lhumerus -15.6075 -58.1304 85.2498
lradius 80.2659
lwrist -12.1714
lhand -46.1662 15.165
lfingers 7.12502
lthumb -18.9056 44.2662
rfemur -78.0439 -18.1 30.8378
rtibia 56.597
rfoot -15.5426 -11.4206
rtoes -5.25525
lfemur -81.0341 2.40255 -23.0732
ltibia 45.357
lfoot -5.3625 -17.1731
ltoes -8.49415
355
root 0.360013 16.883 -3.38586 43.9842 16.7261 1.27612
lowerback 37.3279 7.17325 4.2442
upperback 15.0429 10.7436 9.48976
thorax -2.92354 4.90048 4.01494
lowerneck -16.2578 -9.83785 -3.01757
upperneck 5.28454 -12.2187 -4.62929
head 4.0394 -6.41813 -1.93572
rclavicle -1.04958e-013 -2.8625e-014
rhumerus 37.7082 4.77372 -48.7697
rradius 28.1076
rwrist -16.7
rhand -17.3734 5.91775
rfingers 7.12502
rthumb 8.87503 -23.8756
lclavicle -1.04958e-013 -2.8625e-014
lhumerus -15.514 -58.1853 85.472
lradius 79.6659
lwrist -11.5989
lhand -45.8546 15.1416
lfingers 7.12502
lthumb -18.6058 44.2718
rfemur -76.3989 -17.7997 30.4493
rtibia 55.9408
rfoot -15.4353 -11.4698
rtoes -4.97243
lfemur -79.5737 2.79185 -22.8034
ltibia 44.8548
lfoot -5.47595 -17.0193
ltoes -9.75135
356
root 0.331877 16.9248 -3.38937 43.2469 16.6323 1.0297
lowerback 37.3222 7.22739 4.07292
upperback 14.9827 10.7657 9.49031
thorax -3.01999 4.90636 4.08502
lowerneck -16.4668 -9.74329 -3.13864
upperneck 5.50221 -12.0453 -4.57183
head 4.1529 -6.33423 -1.9077
rclavicle -4.77083e-014 1.23246e-014
rhumerus 36.5245 6.62696 -48.2119
rradius 28.952
rwrist -16.886
rhand -17.661 6.79271
rfingers 7.12502
rthumb 8.5975 -23.0122
lclavicle -4.77083e-014 1.23246e-014
lhumerus -15.5128 -58.1117 85.8391
lradius 79.027
lwrist -10.9608
lhand -45.6365 14.3628
lfingers 7.12502
lthumb -18.3961 43.5129
rfemur -75.2138 -17.4761 30.2544
rtibia 55.3017
rfoot -15.2348 -11.5694
rtoes -5.13822
lfemur -78.5651 3.02884 -22.4009
ltibia 44.3747
lfoot -5.48527 -16.803
ltoes -9.87567
357
root 0.304196 16.9542 -3.39294 42.6989 16.6116 0.836071
lowerback 37.0729 7.218 3.97538
upperback 14.8657 10.727 9.46244
thorax -3.07623 4.89232 4.12546
lowerneck -16.669 -9.70034 -3.48213
upperneck 5.91657 -11.9103 -4.20891
head 4.3575 -6.25592 -1.76629
rclavicle 6.99722e-014 2.8625e-014
rhumerus 35.2919 8.27928 -47.9725
rradius 29.6706
rwrist -16.0231
rhand -17.404 7.53515
rfingers 7.12502
rthumb 8.84547 -22.2595
lclavicle 6.99722e-014 2.8625e-014
lhumerus -15.586 -58.1148 86.2164
lradius 78.405
lwrist -10.393
lhand -45.4033 14.0292
lfingers 7.12502
lthumb -18.1717 43.2003
rfemur -74.3012 -17.182 30.1042
rtibia 54.7786
rfoot -15.0675 -11.6754
rtoes -5.49403
lfemur -77.8016 3.13729 -21.9738
ltibia 43.954
lfoot -5.44543 -16.5511
ltoes -10.2703
